<?xml version="1.0" encoding="utf-8"?>
<!-- Generator: Adobe Illustrator 25.4.1, SVG Export Plug-In . SVG Version: 6.00 Build 0)  -->
<svg version="1.1" id="Layer_1" xmlns="http://www.w3.org/2000/svg" xmlns:xlink="http://www.w3.org/1999/xlink" x="0px" y="0px"
	 viewBox="0 0 134 16.6" style="enable-background:new 0 0 134 16.6;" xml:space="preserve">
<style type="text/css">
	.st0{stroke:#000000;stroke-width:0.5;stroke-miterlimit:10;}
</style>
<g>
	<path class="st0" d="M0.9,15.8v-15h5.8c2.8,0,4.7,1.2,4.7,3.8c0,1.6-1.2,2.9-2.5,3.3c1.8,0.6,2.9,1.8,2.9,3.7
		c0,3.3-2.7,4.2-5.7,4.2H0.9z M2.9,7.1h3.6c1.9,0,3-0.9,3-2.4c0-1.3-0.8-2.3-2.9-2.3H2.9V7.1z M2.9,14.1h3.7c2.3,0,3.4-0.9,3.4-2.7
		c0-1.5-0.8-2.7-3.4-2.7H2.9V14.1z"/>
	<path class="st0" d="M15,15.8v-15h9.7v1.6h-7.8v4.9h7.4V9h-7.4v5.2h8v1.6H15z"/>
	<path class="st0" d="M27.7,15.8v-15h1.9v6.3h8V0.8h1.9v15h-1.9v-7h-8v7H27.7z"/>
	<path class="st0" d="M53.9,15.8l-1.7-4.4h-6.7l-1.7,4.4h-2.1l6-15H50l6,15H53.9z M46.1,9.7h5.5l-2.3-6C49.1,3.3,49,3,48.8,2.6
		c-0.1,0.4-0.3,0.7-0.4,1.1L46.1,9.7z"/>
	<path class="st0" d="M60.8,15.8l-5.7-15h2.1l4,10.9c0.3,0.7,0.5,1.3,0.7,2c0.2-0.6,0.5-1.3,0.7-2l4-10.9h2.1l-5.8,15H60.8z"/>
	<path class="st0" d="M73,0.8v15H71v-15H73z"/>
	<path class="st0" d="M75.9,8.3c0-4.7,3.1-7.8,7.1-7.8c4.1,0,7.1,3.1,7.1,7.8c0,4.7-3.1,7.8-7.1,7.8C79,16.1,75.9,13,75.9,8.3z
		 M88.1,8.3c0-3.8-2.1-6.2-5-6.2c-3,0-5,2.4-5,6.2c0,3.8,2,6.2,5,6.2C86.1,14.5,88.1,12.1,88.1,8.3z"/>
	<path class="st0" d="M93,10V0.8h1.9v8.9c0,3.3,1.3,4.8,3.7,4.8c2.4,0,3.7-1.5,3.7-4.8V0.8h1.9V10c0,4.1-2.1,6.2-5.6,6.2
		S93,14.1,93,10z"/>
	<path class="st0" d="M107.9,15.8v-15h6.3c2.9,0,4.7,1.4,4.7,3.9c0,1.9-1.4,3.2-2.8,3.6c1.4,0.2,2.4,1.5,2.4,3.4v4h-1.9v-3.4
		c0-2.4-0.9-3.1-3.1-3.1h-3.7v6.5H107.9z M109.9,7.6h3.9c2,0,3.2-0.9,3.2-2.6c0-1.7-1.2-2.5-3.2-2.5h-3.9V7.6z"/>
	<path class="st0" d="M121.4,6.4c0-3.2,2.6-5.9,5.9-5.9c3.2,0,5.8,2.6,5.8,5.9c0,3.2-2.6,5.9-5.8,5.9C124,12.2,121.4,9.6,121.4,6.4z
		 M131.9,6.4c0-2.7-2.1-4.8-4.7-4.8c-2.7,0-4.7,2.1-4.7,4.8c0,2.7,2.1,4.8,4.7,4.8C129.9,11.1,131.9,9,131.9,6.4z M125,9.5V3.2h2.7
		c1.2,0,2,0.7,2,1.8c0,0.7-0.4,1.3-0.9,1.5c0.5,0.2,0.8,0.7,0.8,1.4v1.6h-1.1V8.1c0-0.8-0.3-1.1-1.1-1.1h-1.3v2.5H125z M126.1,6h1.5
		c0.7,0,1.1-0.3,1.1-0.9c0-0.6-0.4-0.9-1.1-0.9h-1.5V6z"/>
</g>
</svg>
