<?xml version="1.0" encoding="utf-8"?>
<!-- Generator: Adobe Illustrator 25.2.2, SVG Export Plug-In . SVG Version: 6.00 Build 0)  -->
<svg version="1.1" id="Layer_1" xmlns="http://www.w3.org/2000/svg" xmlns:xlink="http://www.w3.org/1999/xlink" x="0px" y="0px"
	 viewBox="0 0 54 54" style="enable-background:new 0 0 54 54;" xml:space="preserve">
<path d="M42.2,51.8c-2.9,2.8-6.2,2.4-9.2,1.1c-3.3-1.4-6.3-1.5-9.7,0c-4.3,1.9-6.6,1.3-9.2-1.1c-14.6-15.1-12.5-38,4.2-38.9
	c4,0.2,6.9,2.2,9.2,2.4c3.5-0.7,6.9-2.8,10.7-2.5c4.5,0.4,7.9,2.2,10.2,5.4c-9.3,5.6-7.1,17.9,1.5,21.4
	C48.1,44.1,45.8,48.6,42.2,51.8L42.2,51.8z M27.1,12.8C26.6,6.1,32.1,0.5,38.3,0C39.2,7.7,31.3,13.5,27.1,12.8z"/>
</svg>
