<?xml version="1.0" encoding="UTF-8"?>
<svg width="54px" height="54px" viewBox="0 0 54 54" version="1.1" xmlns="http://www.w3.org/2000/svg" xmlns:xlink="http://www.w3.org/1999/xlink">
    <g id="Page-1" stroke="none" stroke-width="1" fill="none" fill-rule="evenodd">
        <g id="new_footer_desktop" transform="translate(-199.000000, -1863.000000)" fill="#000000">
            <path d="M199,1911.74104 L236.245233,1874.56175 C233.65898,1875.9004 230.593792,1876.56972 227.440798,1876.56972 C221.877162,1876.56972 215.850554,1874.56175 210.96541,1870.73705 L215.850554,1863 C221.118847,1867.87649 226.674501,1870.0757 232.126386,1870.0757 C237.099335,1870.0757 242.080266,1868.06773 246.390687,1864.43426 L251.65898,1869.59761 C247.923282,1874.08367 245.911752,1878.96016 245.911752,1884.02789 C245.911752,1889.3745 248.210643,1894.92032 253,1900.17928 L245.337029,1905.04781 C241.505543,1900.17928 239.494013,1894.15538 239.494013,1888.61753 C239.494013,1885.46215 240.076718,1882.40239 241.505543,1879.82072 L204.36408,1917 L199,1911.74104 Z" id="Fill-24-Copy-2"></path>
        </g>
    </g>
</svg>