<?xml version="1.0" encoding="UTF-8"?>
<svg width="69px" height="59px" viewBox="0 0 69 59" version="1.1" xmlns="http://www.w3.org/2000/svg" xmlns:xlink="http://www.w3.org/1999/xlink">
    <title>Fill 49</title>
    <g id="Welcome" stroke="none" stroke-width="1" fill="none" fill-rule="evenodd">
        <g id="07_insight" transform="translate(-1044.000000, -10201.000000)" fill="#000000">
            <g id="Group-3" transform="translate(-792.000000, 9373.000000)">
                <path d="M1882.41574,863.578416 C1891.83022,858.631211 1898,855.703416 1898,846.14441 C1898,839.694876 1893.66448,834 1885.66738,834 C1879.41422,834 1874.32832,838.017857 1873.49457,845.648292 L1867.49848,845.648292 C1866.66473,838.017857 1861.57883,834 1855.33262,834 C1847.33552,834 1843,839.694876 1843,846.14441 C1843,855.703416 1849.16283,858.631211 1858.58426,863.578416 C1864.58034,866.680901 1869.16599,872.131211 1870.5,879 C1871.91738,872.131211 1876.41271,866.680901 1882.41574,863.578416 M1848.23191,865.728127 C1841.44571,862.319084 1836,856.755138 1836,846.694304 C1836,836.141515 1843.2051,828 1854.67601,828 C1862.04169,828 1867.4874,831.069524 1870.50349,837.139284 C1873.5126,831.069524 1878.95831,828 1886.33097,828 C1897.80188,828 1905,836.141515 1905,846.694304 C1905,856.755138 1899.55429,862.319084 1892.77507,865.728127 C1884.48781,869.885496 1876.27734,873.703347 1874.86006,887 L1866.14692,887 C1864.72266,873.703347 1856.51917,869.885496 1848.23191,865.728127" id="Fill-49"></path>
            </g>
        </g>
    </g>
</svg>