<svg xmlns="http://www.w3.org/2000/svg" xmlns:xlink="http://www.w3.org/1999/xlink" width="35" height="35" viewBox="0 0 35 35"><path fill="#fff" d="M0,0C2.474,0,2.767.009,3.744.054a5.114,5.114,0,0,1,1.72.319,2.865,2.865,0,0,1,1.065.693,2.861,2.861,0,0,1,.693,1.065,5.122,5.122,0,0,1,.319,1.721c.045.977.054,1.27.054,3.743s-.009,2.767-.054,3.744a5.122,5.122,0,0,1-.319,1.721,2.861,2.861,0,0,1-.693,1.065,2.865,2.865,0,0,1-1.065.693,5.114,5.114,0,0,1-1.72.319c-.977.044-1.27.054-3.744.054s-2.767-.01-3.744-.054a5.114,5.114,0,0,1-1.72-.319,2.873,2.873,0,0,1-1.065-.693,2.873,2.873,0,0,1-.693-1.065,5.122,5.122,0,0,1-.319-1.721c-.045-.977-.054-1.27-.054-3.744s.009-2.766.054-3.743a5.122,5.122,0,0,1,.319-1.721,2.873,2.873,0,0,1,.693-1.065A2.873,2.873,0,0,1-5.464.373,5.114,5.114,0,0,1-3.744.054C-2.767.009-2.474,0,0,0M0-1.669c-2.516,0-2.832.01-3.82.056a6.782,6.782,0,0,0-2.249.43A4.548,4.548,0,0,0-7.71-.114,4.523,4.523,0,0,0-8.778,1.527a6.794,6.794,0,0,0-.431,2.249c-.045.988-.056,1.3-.056,3.819s.011,2.832.056,3.82a6.8,6.8,0,0,0,.431,2.249A4.532,4.532,0,0,0-7.71,15.305a4.548,4.548,0,0,0,1.641,1.069,6.808,6.808,0,0,0,2.249.43c.988.045,1.3.056,3.82.056s2.832-.011,3.82-.056a6.808,6.808,0,0,0,2.249-.43A4.548,4.548,0,0,0,7.71,15.305a4.532,4.532,0,0,0,1.068-1.641,6.8,6.8,0,0,0,.431-2.249c.045-.988.056-1.3.056-3.82s-.011-2.831-.056-3.819a6.794,6.794,0,0,0-.431-2.249A4.523,4.523,0,0,0,7.71-.114,4.548,4.548,0,0,0,6.069-1.183a6.782,6.782,0,0,0-2.249-.43c-.988-.046-1.3-.056-3.82-.056" transform="translate(17.5 9.904)"/><path fill="#fff" d="M0,0A4.758,4.758,0,0,0-4.758,4.758,4.757,4.757,0,0,0,0,9.515,4.758,4.758,0,0,0,4.758,4.758,4.758,4.758,0,0,0,0,0M0,7.846A3.088,3.088,0,0,1-3.088,4.758,3.088,3.088,0,0,1,0,1.669,3.088,3.088,0,0,1,3.088,4.758,3.088,3.088,0,0,1,0,7.846" transform="translate(17.5 12.742)"/><path fill="#fff" d="M0,0A1.112,1.112,0,0,1-1.112,1.112,1.111,1.111,0,0,1-2.223,0,1.111,1.111,0,0,1-1.112-1.112,1.112,1.112,0,0,1,0,0" transform="translate(23.557 12.554)"/></svg>
