<svg xmlns="http://www.w3.org/2000/svg" xmlns:xlink="http://www.w3.org/1999/xlink" width="35" height="35" viewBox="0 0 35 35"><path fill="#fff" d="M0,0V1.572A4.259,4.259,0,0,1,1.056.362a3.244,3.244,0,0,1,1.3-.6,4.655,4.655,0,0,1,2.648.227A3.017,3.017,0,0,1,6.784,1.855,6.275,6.275,0,0,1,7.2,3.966c.025,1.648.034,3.3.045,4.945.005.829,0,1.659,0,2.488v.259H3.855V11.4c0-2.116.01-4.231-.007-6.346a2.742,2.742,0,0,0-.456-1.6,1.269,1.269,0,0,0-.9-.53,1.957,1.957,0,0,0-1.453.257,1.978,1.978,0,0,0-.818,1.5C.151,5.347.133,6.021.128,6.692c-.012,1.568,0,3.135,0,4.7v.261h-3.38V0Z" transform="translate(18.373 13.772)"/><path fill="#fff" d="M13.031-9.552H9.65V-21.234h3.381Z" transform="translate(0 35)"/><path fill="#fff" d="M0,0A2.04,2.04,0,0,1-1.96,2.111,2.04,2.04,0,0,1-3.921,0,2.04,2.04,0,0,1-1.96-2.111,2.04,2.04,0,0,1,0,0" transform="translate(13.301 10.059)"/></svg>
